<svg width="800" height="240" viewBox="0 0 800 240" xmlns="http://www.w3.org/2000/svg">
  <defs>
    <style type="text/css">
      
    </style>

    <linearGradient id="bg" x1="0%" y1="0%" x2="0%" y2="100%">
      <stop offset="0%" stop-color="#fdfbff"/>
      <stop offset="55%" stop-color="#f6f1fc"/>
      <stop offset="100%" stop-color="#efe8fa"/>
    </linearGradient>
    <radialGradient id="glowL" cx="16%" cy="50%" r="42%">
      <stop offset="0%" stop-color="#e6d8f8" stop-opacity="0.85"/>
      <stop offset="100%" stop-color="#e6d8f8" stop-opacity="0"/>
    </radialGradient>
    <radialGradient id="glowR" cx="84%" cy="50%" r="42%">
      <stop offset="0%" stop-color="#e6d8f8" stop-opacity="0.85"/>
      <stop offset="100%" stop-color="#e6d8f8" stop-opacity="0"/>
    </radialGradient>
    <radialGradient id="centerGlow" cx="50%" cy="46%" r="46%">
      <stop offset="0%" stop-color="#ffffff" stop-opacity="0.75"/>
      <stop offset="100%" stop-color="#ffffff" stop-opacity="0"/>
    </radialGradient>

    <linearGradient id="titleGrad" x1="20%" y1="0%" x2="80%" y2="100%">
      <stop offset="0%" stop-color="#4c1d95"/>
      <stop offset="55%" stop-color="#7c3aed"/>
      <stop offset="100%" stop-color="#a855f7"/>
    </linearGradient>
    <linearGradient id="strokeGrad" x1="0%" y1="0%" x2="0%" y2="100%">
      <stop offset="0%" stop-color="#c4b5fd"/>
      <stop offset="100%" stop-color="#6d28d9"/>
    </linearGradient>
    <radialGradient id="petalFill" cx="35%" cy="28%" r="85%">
      <stop offset="0%" stop-color="#fdfaff"/>
      <stop offset="32%" stop-color="#ead9f8"/>
      <stop offset="68%" stop-color="#c39ae4"/>
      <stop offset="100%" stop-color="#8b46c7"/>
    </radialGradient>
    <linearGradient id="leafGrad" x1="0%" y1="0%" x2="100%" y2="100%">
      <stop offset="0%" stop-color="#8ab887"/>
      <stop offset="100%" stop-color="#4f7a52"/>
    </linearGradient>
    <linearGradient id="goldGrad" x1="0%" y1="0%" x2="100%" y2="100%">
      <stop offset="0%" stop-color="#eecf8d"/>
      <stop offset="100%" stop-color="#c9a24b"/>
    </linearGradient>

    <!-- 单瓣 -->
    <g id="petal">
      <path d="M0,0 C-5,-4 -9,-12 -7.5,-21 C-6,-28 -2,-30 0,-30 C2,-30 6,-28 7.5,-21 C9,-12 5,-4 0,0 Z"
            fill="url(#petalFill)" stroke="#a855f7" stroke-width="0.35" stroke-opacity="0.4"/>
      <path d="M-0.8,-29 C-2.8,-25 -3.6,-19 -2.6,-13" stroke="#ffffff" stroke-width="0.6" fill="none" opacity="0.65" stroke-linecap="round"/>
    </g>
    <!-- 五瓣紫罗兰 -->
    <g id="violet">
      <g transform="rotate(0)"><use href="#petal"/></g>
      <g transform="rotate(72)"><use href="#petal"/></g>
      <g transform="rotate(144)"><use href="#petal"/></g>
      <g transform="rotate(216)"><use href="#petal"/></g>
      <g transform="rotate(288)"><use href="#petal"/></g>
      <ellipse rx="2.1" ry="1.25" fill="#fde68a" opacity="0.92"/>
      <circle r="0.75" fill="#fff7cc" opacity="0.95"/>
    </g>
    <!-- 叶子 -->
    <g id="leaf">
      <path d="M0,0 C-7,-2 -13,-8 -14,-18 C-6,-16 -1,-9 0,0 Z" fill="url(#leafGrad)" opacity="0.9"/>
      <path d="M-1,-2 C-5,-6 -9,-11 -12,-16" stroke="#3d6240" stroke-width="0.5" fill="none" opacity="0.55"/>
    </g>
    <!-- 飘落花瓣 -->
    <g id="fallPetal">
      <path d="M0,0 C-3,-2.5 -6,-8 -5,-15 C-3.5,-20 -1.5,-21 0,-21 C1.5,-20 3.5,-18 5,-15 C6,-8 3,-2.5 0,0 Z"
            fill="url(#petalFill)" stroke="#a855f7" stroke-width="0.3" stroke-opacity="0.38"/>
    </g>
    <!-- 星光 -->
    <g id="sparkle">
      <path d="M0,-4.5 C0.6,-1.3 1.3,-0.6 4.5,0 C1.3,0.6 0.6,1.3 0,4.5 C-0.6,1.3 -1.3,0.6 -4.5,0 C-1.3,-0.6 -0.6,-1.3 0,-4.5 Z" fill="#f3dd9a"/>
    </g>
    <!-- 角花 -->
    <g id="corner" fill="none" stroke="#b79ae0" stroke-width="1" stroke-linecap="round">
      <path d="M0,14 C0,6 6,0 14,0"/>
      <path d="M0,22 C0,10 10,0 22,0" opacity="0.5"/>
      <circle cx="5" cy="5" r="1.4" fill="#b79ae0" stroke="none"/>
    </g>

    <filter id="softShadow" x="-15%" y="-15%" width="130%" height="130%">
      <feDropShadow dx="0" dy="2.5" stdDeviation="3" flood-color="#7c3aed" flood-opacity="0.25"/>
    </filter>
    <filter id="petalShadow" x="-25%" y="-25%" width="150%" height="150%">
      <feDropShadow dx="0" dy="1.6" stdDeviation="2.2" flood-color="#a855f7" flood-opacity="0.3"/>
    </filter>
    <filter id="glow" x="-30%" y="-30%" width="160%" height="160%">
      <feGaussianBlur stdDeviation="5"/>
    </filter>

    <!-- 左侧花束（右侧镜像复用） -->
    <g id="bouquet">
      <path d="M0,52 C-4,30 -2,10 -14,-16" stroke="#5d8a60" stroke-width="1.4" fill="none" stroke-linecap="round"/>
      <path d="M0,52 C2,34 8,16 4,-8" stroke="#5d8a60" stroke-width="1.2" fill="none" stroke-linecap="round"/>
      <path d="M0,52 C-8,40 -14,30 -26,16" stroke="#5d8a60" stroke-width="1" fill="none" stroke-linecap="round"/>
      <use href="#leaf" transform="translate(-3,38) scale(1.15)"/>
      <use href="#leaf" transform="translate(2,26) scale(-1.0,1.0) rotate(12)"/>
      <use href="#leaf" transform="translate(-8,14) scale(0.85) rotate(-10)"/>
      <use href="#violet" transform="translate(-14,-20) scale(1.35)" filter="url(#petalShadow)"/>
      <use href="#violet" transform="translate(5,-12) scale(0.95) rotate(24)" filter="url(#petalShadow)"/>
      <use href="#violet" transform="translate(-27,12) scale(0.75) rotate(-18)" filter="url(#petalShadow)"/>
    </g>
    <!-- 主标题矢量路径（演示夏行楷，字体无关） -->
    <g id="titlePaths">
      <path transform="translate(181.69,133.31) scale(0.062000,-0.062000)" d="M751 895Q758 894 769.5 892.0Q781 890 788 888Q801 884 811 867Q819 852 821.0 842.5Q823 833 824 805Q824 771 826 767Q829 763 843 762Q875 760 899.5 750.5Q924 741 931 730Q935 723 935 718Q935 707 914 704L892 700Q886 698 857 698L829 699L822 690Q814 680 807.5 661.5Q801 643 805 641L833 640Q859 638 860 637Q862 635 874 633Q901 626 910 619L923 607Q929 603 930.5 600.0Q932 597 933 589Q935 577 933 572Q928 561 909 551Q901 547 895.0 545.5Q889 544 879 544L847 540Q836 538 820.0 532.0Q804 526 797 521Q790 517 769.5 509.5Q749 502 740 500Q727 498 722 495Q711 490 706 495Q702 499 737 522Q754 534 770.5 547.5Q787 561 788 564V565Q788 569 778 580Q766 592 761.0 601.0Q756 610 751 624Q746 639 746 658Q746 680 747 685L749 693L740 692L695 686Q688 684 686.0 677.0Q684 670 684 645L683 614Q683 611 676 609H672Q661 609 647 623Q638 632 637 641Q636 646 633.5 652.5Q631 659 629 661Q628 662 614.0 655.0Q600 648 589 641Q578 634 574.0 627.0Q570 620 570 607Q570 600 568.5 596.5Q567 593 563 589Q556 582 551 582Q547 582 542 587Q540 589 536.0 592.0Q532 595 530 596Q523 600 522 603Q518 612 483 581Q460 561 441 551Q425 543 413 531Q401 519 397 519Q393 519 377.5 537.5Q362 556 358 565Q349 584 349 606Q349 613 351 629Q352 645 356 656L363 671Q366 679 371.0 684.0Q376 689 380 689Q383 689 383.5 681.5Q384 674 384 652Q384 622 386 622Q387 621 408.5 632.0Q430 643 451 656Q452 657 482 673L506 684V714L507 751Q507 760 506.5 762.5Q506 765 503 766H502Q499 766 493 762Q485 757 477 757Q470 757 466 760L461 764Q461 767 469.5 773.5Q478 780 488 786Q500 792 509.5 794.0Q519 796 530 795Q542 793 544.5 788.0Q547 783 549 760L551 721Q551 709 554 709Q555 708 566 714Q576 718 581 727Q587 736 594 739Q601 742 603.0 742.0Q605 742 610 739Q614 736 617.5 735.5Q621 735 625 736L633 738L634 763Q634 808 627 819Q624 823 625.0 824.5Q626 826 633 826Q640 826 649.5 820.0Q659 814 664 806Q668 799 674 767Q675 753 680 753Q684 753 688 757Q692 760 693.5 760.0Q695 760 699 758Q704 755 708 755L723 757L752 762L765 764Q766 771 767.0 789.5Q768 808 768 832V848Q768 864 766 866Q764 868 760.0 869.5Q756 871 750 872Q736 875 731 879L727 882L736 888Q745 895 751 895ZM608 587Q617 585 620 582Q627 577 632 576Q639 573 646.5 567.0Q654 561 655 557Q657 551 659.5 536.5Q662 522 661 518Q659 512 652 505Q641 493 637.5 488.5Q634 484 636 480Q640 476 652 473Q667 470 673.0 466.5Q679 463 682 456Q690 438 690 432Q690 428 688 424Q686 419 672.0 406.0Q658 393 650 389L628 371Q617 360 602 348Q592 340 594 340Q596 338 641 358Q695 381 723.5 389.0Q752 397 781 397Q792 397 797.5 398.0Q803 399 806 401L811 406L815 402Q821 398 836 393Q856 388 864.0 384.5Q872 381 878 374Q885 368 886.0 365.5Q887 363 887 354Q887 345 885.5 342.0Q884 339 878 333Q871 326 858.5 319.0Q846 312 837 310Q832 310 826 307H823Q816 307 811 308Q807 309 802 309Q798 309 792 306Q782 302 781 302Q777 302 772 297Q766 293 747 287L721 277Q716 274 713.0 273.5Q710 273 706 275L700 277L706 281Q712 285 713 287L728 301Q760 328 760 332Q760 339 703 311L659 291Q648 286 640 281L633 275L640 258Q654 226 658 211Q660 203 661 202Q663 200 663 194V192Q663 185 666 176Q669 164 669 143V134Q669 123 671 119Q672 117 672 109Q672 97 670.0 84.0Q668 71 664 67L658 55Q654 40 640 24Q618 2 607 -1Q603 -2 600.5 -2.0Q598 -2 594 1Q587 5 587 7Q587 11 575 21Q564 31 561 36Q550 55 551 55Q553 55 548.5 61.0Q544 67 538 74Q531 83 529.0 89.0Q527 95 527 104Q528 110 529.5 112.5Q531 115 535 115Q540 115 547 112Q559 107 573 107L586 106L595 123Q601 135 603.5 147.0Q606 159 609 180Q610 187 610 196Q610 205 608 212Q605 224 605 230Q605 236 600.0 244.5Q595 253 593 252L579 248L556 243Q547 240 545 240Q542 240 536 243Q529 246 516.5 257.5Q504 269 504 273Q504 276 502 278Q500 280 498.0 291.5Q496 303 496 311Q496 318 501.0 328.0Q506 338 511 343L532 364L550 382L543 391Q529 408 529 422Q529 427 527 433Q525 437 525 441Q525 450 531.0 462.0Q537 474 547 484Q567 504 588.0 528.0Q609 552 613 558Q615 561 615.0 563.0Q615 565 612 568Q610 570 605.0 574.0Q600 578 599.5 579.5Q599 581 600 583Q601 586 602.5 587.0Q604 588 608 587ZM783 229Q788 226 800 223Q811 222 826 202L839 184Q849 172 853.0 163.0Q857 154 861 132Q863 121 861 115Q860 111 853.0 104.5Q846 98 843 98L831 95Q827 93 824.0 93.0Q821 93 816 95Q812 96 806.5 103.0Q801 110 801 113V116Q801 122 795 127L786 138Q785 140 783.5 141.0Q782 142 781 142Q779 142 776 145Q775 147 762 147H756Q745 147 745 155Q745 160 759 169Q774 180 774 182Q776 184 770.0 191.0Q764 198 750 213Q735 229 735 234L736 240Q739 243 752.5 239.5Q766 236 783 229ZM430 197Q433 197 437.0 194.0Q441 191 442 188Q444 183 449 176Q459 164 453 156Q451 155 451 153Q456 150 493 167Q502 171 509.5 174.0Q517 177 521 177Q526 177 526.5 176.0Q527 175 527 169Q527 161 523 155Q517 144 509.5 133.5Q502 123 501 123Q500 123 500 120Q500 112 487 94Q481 84 478 75Q474 67 468.5 62.0Q463 57 458 57Q449 57 446 66Q441 76 436 81Q420 99 415.5 107.0Q411 115 408 131Q405 145 405 155Q405 181 422 192Q429 197 430 197Z"/>
      <path transform="translate(270.09,133.31) scale(0.062000,-0.062000)" d="M742 805Q754 805 758.5 804.0Q763 803 773 798Q801 786 822 760Q845 732 845 714Q845 707 841 703Q837 699 830 685Q823 672 810.0 657.0Q797 642 787 636L776 628Q773 625 768 624L758 619Q756 616 745 613L732 606Q729 603 715.0 597.5Q701 592 695 591L677 588Q665 586 660 586H652Q644 586 628 580Q621 577 612.0 573.0Q603 569 594 565Q575 558 572 555L571 554Q571 552 573.5 550.0Q576 548 579 548Q582 548 587.0 542.5Q592 537 594 532L595 527Q595 518 586 509Q580 503 581 502Q581 502 607 509Q636 519 644 519Q647 519 655 517Q667 514 668 514Q681 514 688.5 503.0Q696 492 699 467L700 456Q700 449 697 437L693 420Q692 419 690 408L686 394L678 376Q671 358 671 356Q671 353 684 340L697 328V306Q697 288 694.5 280.0Q692 272 685 267L675 259Q671 253 670 257Q668 261 664 261Q656 263 644 278Q642 280 641 280Q640 280 634 274Q631 271 618 253Q601 227 568 195Q544 168 544 169Q536 161 524.0 151.0Q512 141 502 133Q494 127 471 114Q468 111 464.5 109.0Q461 107 458 105Q444 95 436 95Q430 95 414 87Q402 80 389 77Q379 75 374 71Q368 67 365 69Q361 71 360 68Q356 64 348.5 60.5Q341 57 335 57Q327 57 327 59Q327 60 342 75Q357 88 357 89Q356 91 363.5 99.0Q371 107 379 113Q388 122 388 123Q392 128 397 132Q400 133 417 148L439 169Q460 189 484.5 214.5Q509 240 511 244Q512 248 541 279Q555 294 567.5 309.0Q580 324 587 334Q588 336 578.0 346.5Q568 357 565 360Q540 385 539 390Q535 396 532 396Q531 396 516 381Q500 365 493 350Q487 338 484.5 335.0Q482 332 476 330Q468 328 465 328Q457 328 452.0 334.5Q447 341 447 353Q447 359 444 365Q441 371 441 375Q441 383 438 387Q434 391 434 393Q434 395 442 398Q450 401 450 405Q452 412 458 419Q465 428 465 429Q465 430 472 437Q478 445 478 447Q478 453 489 469L492 475L499 489L513 517Q526 545 519 541Q518 540 493 540Q464 540 447.0 545.0Q430 550 418 561Q414 565 409.0 569.5Q404 574 400 579Q392 586 380.5 604.0Q369 622 368 629Q365 636 361 644Q357 651 356.0 655.5Q355 660 355 671Q355 703 364 714Q369 718 373.0 718.0Q377 718 378 714L382 707Q398 675 402 663Q404 659 405.5 656.5Q407 654 411 654Q421 652 421 647Q421 642 430.0 624.5Q439 607 443 606Q445 604 448 604Q453 604 457 605Q466 606 481 613Q493 618 497 618Q500 618 504 622Q507 624 507.5 626.5Q508 629 506 635Q504 647 504 672Q503 680 503.0 688.5Q503 697 502 701Q500 703 496 703Q491 703 470.5 714.0Q450 725 448 729Q446 731 446.5 732.5Q447 734 450 734Q454 735 453 739Q453 742 460 743Q462 744 471.5 746.5Q481 749 500 755Q530 766 562.0 775.0Q594 784 614 788Q640 793 681 796Q687 796 696.0 798.0Q705 800 709 802Q711 804 718 804ZM755 757Q752 757 744 754Q727 750 677 744Q634 738 633 733V731Q633 726 636 715Q640 693 640 689Q640 682 637 671L635 659Q635 658 638 658Q647 658 655 662Q660 662 666 657Q675 651 678 651Q681 651 687.0 656.0Q693 661 701 669Q718 685 732 703Q740 714 748.5 730.5Q757 747 759 753Q759 757 755 757ZM584 722Q580 722 569.0 718.5Q558 715 553 712Q551 710 549 686Q548 677 548 663Q548 648 550 648Q552 648 558.0 654.5Q564 661 564 662Q564 665 571 675Q577 684 582.5 697.5Q588 711 588 717Q588 722 584 722ZM639 460Q631 460 609.0 452.5Q587 445 578 439Q568 432 564 426Q560 422 560 419Q560 417 569 415Q575 415 585 407Q596 399 607.0 392.5Q618 386 620 387Q624 387 627 401Q629 414 633 422Q635 428 638.0 439.0Q641 450 642 455Q645 461 639 460Z"/>
      <path transform="translate(358.49,133.31) scale(0.062000,-0.062000)" d="M728 788Q742 788 759.0 781.0Q776 774 783 765L792 755Q796 751 798 740Q802 729 807 722Q813 714 813 713Q813 711 816 708Q818 706 818 701Q818 693 812 685Q807 680 807 676Q807 673 796 660Q792 655 787.5 649.5Q783 644 780 639L768 628Q761 623 760 621Q755 615 745.5 608.0Q736 601 734 601Q731 601 724.0 597.0Q717 593 713 589Q705 585 703 585Q701 585 690 581Q674 573 659 568Q639 562 632 562Q630 563 594 551L578 546Q571 544 567 541Q562 536 560 539Q556 541 591 576Q616 601 636.5 625.5Q657 650 657 654Q657 656 668 668Q674 678 673 679Q673 682 677 686Q694 709 694 711Q695 715 700.0 722.0Q705 729 711 736Q715 741 715 746Q715 751 707 754Q698 757 690 757Q680 757 675 753Q663 745 648.5 725.5Q634 706 634 697Q634 694 631 689Q627 685 625 676Q623 667 620.5 660.5Q618 654 616 651Q614 649 614 646L610 638Q605 633 605 630Q605 627 595.5 617.5Q586 608 580 605Q577 604 573.0 602.5Q569 601 564 600L548 594Q544 592 542 592Q540 592 537.5 593.5Q535 595 531 596Q519 603 516 606Q511 611 503 615L489 627Q478 640 478 658Q478 664 479 667Q480 674 479 678Q477 682 474.5 696.5Q472 711 474 712L480 715Q491 716 504 691Q511 678 513.0 676.0Q515 674 522 674Q532 674 560 687Q568 691 575.5 696.0Q583 701 583 703Q583 705 589 707L599 715L609 722Q612 723 630 737Q639 744 645.0 748.0Q651 752 654 754L670 765Q680 771 696.0 778.0Q712 785 720 787Q722 788 728 788ZM721 552Q747 552 752 549L771 539Q785 532 788 526Q792 518 794 516Q797 513 799.0 504.0Q801 495 800 491Q799 485 802 487L805 488Q807 488 799 480Q794 475 791.0 473.5Q788 472 792 477L793 478Q793 480 771 459Q756 446 746 441Q731 432 726 428Q717 421 711 421Q708 421 691.0 411.5Q674 402 665 395Q654 386 634 379Q621 374 578.0 344.0Q535 314 535 310Q535 307 546 308Q551 308 564.5 313.0Q578 318 578 320Q578 321 580 321Q582 321 595 330Q626 350 642.0 357.0Q658 364 689 372Q713 378 735 378Q749 378 752 375Q762 370 770 367Q795 357 792 348Q792 343 794 341Q801 332 801 321Q801 310 795 305Q791 301 791 300Q791 299 783.5 291.5Q776 284 771 279Q770 278 767.5 276.5Q765 275 761 274Q758 272 748 262Q739 253 724 245Q708 238 704 238L690 233Q678 228 658 227Q638 227 636 225Q626 224 606.0 224.0Q586 224 577 225Q577 228 605 243Q607 245 585 248Q566 251 531 261Q525 264 508 266Q492 267 489 272L485 278Q483 280 481 289Q478 299 477 300L475 304Q475 310 493 327Q493 327 515 349L531 362L553 382L566 393Q568 393 581.5 407.0Q595 421 595 423Q595 424 591 424Q584 422 567 420L547 418L535 424Q526 429 512 440Q474 481 466 484Q460 486 456 490Q454 492 454.5 493.5Q455 495 458 496Q465 498 467 497Q476 494 488.5 492.5Q501 491 513 491Q523 491 537.5 494.0Q552 497 557 500Q558 501 570 505Q582 509 612 524Q660 547 683 551Q690 552 721 552ZM810 498Q811 497 810.0 494.0Q809 491 807 491Q806 491 807 495Q808 497 810 498ZM715 178Q724 178 732 176Q756 169 802 169Q843 167 863.0 165.0Q883 163 895 159Q912 153 913 152Q914 151 920 149Q928 147 949.5 136.5Q971 126 988 115Q1019 95 1051 86Q1058 85 1061.0 83.5Q1064 82 1064 79Q1064 75 1061.0 72.0Q1058 69 1055 69Q1054 69 1051.0 67.0Q1048 65 1047 64Q1045 61 1039.5 59.5Q1034 58 1024 58L995 56Q984 56 974.5 59.5Q965 63 962 64L923 82L901 91H871Q855 92 804 92Q764 94 760 96Q752 98 742 98Q733 98 697 94Q616 82 607 78Q599 76 590 76Q579 76 554.5 70.0Q530 64 515 57Q497 49 494 49Q489 49 486 46Q482 44 456.5 40.5Q431 37 417 37Q396 38 379.5 45.5Q363 53 344 72Q327 90 315 92Q311 93 309.5 94.0Q308 95 308 99Q308 109 298 124Q294 129 294 132Q294 135 300 141L306 147L311 138L316 129L331 125Q345 122 352 118Q358 115 376 115Q397 115 418.0 119.5Q439 124 497 142Q531 154 552 155Q573 158 577 159Q595 165 650 171L691 176Q709 178 715 178Z"/>
      <path transform="translate(446.89,133.31) scale(0.062000,-0.062000)" d="M650 802 655 796Q659 792 671 785Q683 778 701.5 756.0Q720 734 723 723Q725 718 725 700Q725 683 723 677Q721 669 712.0 661.5Q703 654 681 640Q679 639 671 634Q668 629 663 629Q658 629 653.0 625.5Q648 622 638 612Q626 600 626 602V606Q626 606 619 601Q607 592 598 583L583 569Q583 569 582.5 568.5Q582 568 582 568Q582 566 595 552L613 530L616 524L656 538Q705 557 718 557Q726 557 736.0 548.0Q746 539 751 529Q754 520 754 516Q754 499 745.0 476.5Q736 454 723 438Q717 432 707.0 423.5Q697 415 689 410Q684 408 677 403Q674 400 672.0 399.0Q670 398 669 397Q667 396 667 391Q667 379 674 366Q680 353 683 334L687 314H717Q748 314 756 312L781 309Q808 308 812 299Q814 295 820 293Q825 291 829.5 286.0Q834 281 834 277Q834 274 836 272Q838 272 838 262Q838 250 836 244Q835 238 829 232Q826 230 822.0 229.5Q818 229 811 230H804Q797 230 788 226Q757 212 752 213Q747 215 742 211L734 209H733Q730 209 725 206Q724 205 721.0 204.0Q718 203 717.0 203.5Q716 204 715 205Q714 208 709 208Q703 208 700 205Q698 203 698 199L699 189Q701 165 701 143Q701 111 698 99L693 81Q690 63 674 35Q668 20 663 11Q660 2 654 -6Q650 -10 646.5 -11.5Q643 -13 636 -13L620 -14Q615 -14 611 -12Q598 -7 587 -7Q583 -7 581.0 -5.5Q579 -4 577 -1L568 12Q562 20 563 22V23Q563 26 559 30Q555 36 556 38L558 42Q558 44 553 52Q549 59 550 64Q550 70 548 71Q546 73 544 81Q543 88 536.0 97.5Q529 107 520 115Q514 119 514 126Q514 133 507 144Q499 154 499 153Q497 153 497 154V156Q497 160 494.0 165.0Q491 170 487 174Q480 181 480 182Q480 184 473.5 194.0Q467 204 461 211Q449 228 425 250Q414 261 409.5 267.0Q405 273 401 284Q395 296 390.5 310.5Q386 325 386 333Q386 340 393 354L403 376Q412 395 416.0 401.5Q420 408 427 413Q436 420 437 420Q440 420 445 425Q454 433 469.5 442.0Q485 451 489 451L519 468L553 488Q556 489 558.0 490.5Q560 492 560 493Q560 496 551.5 503.5Q543 511 532 519Q514 533 513 534L503 542L498 545V572Q498 592 499.0 596.5Q500 601 504 608Q509 617 515 619Q526 622 578 680Q584 688 617 724Q635 744 638.0 748.5Q641 753 641 764Q641 783 646 793ZM691 505Q688 505 674 498L642 480Q641 479 644.5 468.5Q648 458 651 452Q653 450 654.0 450.0Q655 450 657 451L665 461Q679 482 683 486Q686 487 689.0 493.0Q692 499 693 503Q693 505 691 505ZM581 446Q579 446 559.5 432.5Q540 419 521 405Q507 395 497.5 383.0Q488 371 480 354Q473 341 468.5 317.5Q464 294 464 274Q464 241 492 210L519 181Q539 159 539 158Q540 158 553 143Q580 112 590 113Q595 115 603 141Q613 172 615 211L616 237L612 235Q602 232 593 232Q583 232 573 237Q560 243 552.5 250.5Q545 258 545 265Q545 267 539 281Q533 294 531 307V314Q531 320 535 331Q540 343 546.5 352.0Q553 361 573 381L596 405L594 414L588 434Q583 446 581 446ZM608 342Q606 342 604.5 341.0Q603 340 602 339Q598 334 592.5 320.5Q587 307 588 306Q589 305 601 305Q613 305 614 306Q615 306 615 314Q613 322 613 331Q612 342 608 342ZM716 241Q716 242 707 242Q695 242 695 240Q694 239 694 234Q694 226 696 224Q698 221 698 221Q699 221 706 227L715 239Z"/>
      <path transform="translate(535.29,133.31) scale(0.062000,-0.062000)" d="M614 745Q620 742 624 742Q632 742 641 739Q651 735 655 735Q667 735 682.5 725.5Q698 716 708 702Q714 695 715.0 691.0Q716 687 717 672L718 630L719 613Q719 608 717 600Q714 592 710.5 570.5Q707 549 705 531Q704 494 699 480Q696 476 696 464Q696 451 695 447L692 424Q692 424 689 388Q687 362 687 345Q687 296 693 285Q697 278 707.0 269.0Q717 260 724 256L733 253L753 256Q810 267 858 270L897 272H903Q909 272 921 270L939 268Q946 270 946 268Q949 265 955 262Q961 261 970 252Q975 248 976.0 245.5Q977 243 976 238Q975 230 972.0 226.0Q969 222 963 218Q956 215 955 208Q955 202 960 197Q965 194 963 192Q961 190 958 193Q955 196 943 196Q933 196 929 193Q925 189 923 191H922Q919 191 909 187Q903 185 900.0 183.5Q897 182 896 182Q892 182 879 172Q851 153 844 153Q843 153 831 145Q812 132 798 132Q792 132 781 129Q771 126 757 124Q750 124 735 121Q724 119 720 121Q718 121 715.0 121.5Q712 122 710 121Q703 121 713.0 125.5Q723 130 747 139Q761 145 775.0 153.5Q789 162 795 169L802 175H762Q739 175 728.5 175.5Q718 176 707 180Q682 188 668 199Q652 212 645 226Q643 231 632 248Q623 261 620 271Q618 281 612 296L605 324Q602 348 602 397Q602 447 605 451Q607 453 607 478Q608 515 615 546Q616 555 617.5 562.5Q619 570 620 575Q624 594 626.5 621.0Q629 648 629 669Q629 698 625.5 711.0Q622 724 611 735Q605 739 603.5 741.5Q602 744 604 746Q609 749 614 745ZM419 723Q436 723 444 719Q449 716 461 707Q468 702 474.5 693.0Q481 684 491 667Q496 658 497.5 650.5Q499 643 497 631Q493 612 486 591Q482 580 484 578Q486 576 489 577Q492 579 498 579Q505 579 506 577Q510 573 514 572Q527 569 528 549V542Q528 536 524 529Q519 522 516 522Q514 522 501.5 515.5Q489 509 485 505Q479 500 473.5 484.0Q468 468 466 449L464 436Q463 429 465 429Q468 429 498.5 449.5Q529 470 556 490Q570 501 562 490L558 483Q558 482 553 477Q548 472 546 467Q544 461 528 447Q522 440 515.5 434.0Q509 428 505 423L479 397Q459 378 457 372Q455 369 453 333L452 310Q452 299 455 290Q458 282 461.5 261.0Q465 240 464 238Q464 237 463.5 232.5Q463 228 463 215Q462 188 453 170Q450 166 447 160Q444 155 427 155Q422 155 419.0 155.5Q416 156 414 160Q408 169 396 175Q387 180 387 195Q387 207 393 219Q399 228 400.5 236.0Q402 244 402 263Q402 329 399 329Q397 329 397 327L386 317Q362 300 348 280Q342 272 323.0 253.0Q304 234 290 222Q280 214 277 214Q274 215 268.0 226.0Q262 237 260 244Q260 250 257 256Q254 261 254.5 263.5Q255 266 259 267Q263 268 271.5 274.0Q280 280 280 282Q280 284 290 294Q300 304 300 306Q300 309 303 309Q306 309 311 316L319 327Q323 333 323 333Q323 336 330 345Q337 356 337 356Q337 358 342 363Q348 371 360.5 396.5Q373 422 374 429Q376 437 375.0 440.0Q374 443 370 441Q361 439 306 449Q290 451 279.5 457.5Q269 464 262 477Q253 488 255 490L265 487Q273 483 278 483L292 484Q314 487 331.0 494.0Q348 501 371 517L407 540L426 552V572Q426 586 430 610Q434 625 434 645Q434 655 433 658L432 665Q432 667 421 682Q404 702 391 702Q388 702 386 705Q385 707 377 713Q375 715 373.5 716.0Q372 717 372 718Q372 720 383 720Q394 720 404 722Q409 723 419 723ZM988 225Q990 225 990 221Q990 218 988 218Q986 218 986 221Q986 225 988 225Z"/>
    </g>
    <g id="tagPaths">
    <path transform="translate(275.14,208.70) scale(0.016000,-0.016000)" d="M628 678Q647 678 672 672Q678 670 683.5 664.5Q689 659 704 639Q718 620 723.0 612.0Q728 604 732 593Q736 584 741.0 562.5Q746 541 748 528Q748 521 750 515Q751 510 749 506Q748 505 746 498Q746 493 740 485Q734 478 731 464Q722 438 709 418Q705 414 693 395L681 377Q678 374 678 370Q675 361 666.0 350.0Q657 339 646 331Q636 326 630 318Q620 308 616 305Q609 301 604 293Q601 286 596 286Q593 286 592.0 281.5Q591 277 589 266Q585 243 583 241Q582 240 582 232Q582 212 586 204Q587 201 589 176Q591 151 594 142L598 130L606 129L629 131Q652 136 692 139Q711 140 754 148L777 152L785 160Q806 184 822.0 211.0Q838 238 844 262Q849 284 853.5 319.5Q858 355 860 384Q862 422 863 423L864 424Q865 424 868 413Q870 404 875 392Q878 386 888 362L899 336Q907 320 907 316L937 251Q942 247 940 245L944 232Q948 220 952.0 196.5Q956 173 955 164V146L956 135Q956 134 954 122Q953 118 953.5 116.0Q954 114 956 115Q961 117 962.5 117.5Q964 118 962 115Q961 112 957 112Q956 112 954.5 110.0Q953 108 952 105Q944 89 936 79Q928 73 925 73Q921 73 917 69Q912 64 904 61Q898 57 889.0 56.0Q880 55 860 55L816 54Q803 52 753 50Q736 50 721 47Q690 39 660 39Q634 39 610 46Q597 51 593 51Q590 51 575.5 58.0Q561 65 549 73Q525 90 505 119Q489 141 483.5 163.5Q478 186 478 223Q478 255 477 257Q477 260 474 260Q469 260 459 247Q445 227 417.0 194.0Q389 161 376 150Q353 128 328 114L308 103Q300 99 294 99Q286 99 283 96Q279 93 276 93Q269 93 268 103L262 119Q261 123 259.5 128.0Q258 133 257 138Q256 142 255.0 145.5Q254 149 253 151Q253 153 256 156Q258 157 259.0 159.0Q260 161 260 163Q260 168 263 169Q266 170 269 184Q273 197 276 200Q278 202 279.5 202.0Q281 202 282 199Q283 197 283 191V180Q283 175 287 171Q292 166 296 166Q300 166 309.5 173.0Q319 180 325 189L340 205Q347 212 347 215Q347 217 353 223Q368 238 386 265L399 284Q407 295 407 298Q406 299 396 299L390 298Q387 298 380 303Q371 312 357 334Q349 350 352 387L362 477Q366 495 366 505Q370 550 384.0 591.5Q398 633 414 650Q421 658 423.5 658.5Q426 659 428 655Q431 651 426 646Q421 641 414.5 630.5Q408 620 408 618L407 614Q405 612 402.0 600.5Q399 589 399 583Q399 570 396 550Q395 525 396 511L398 497L403 508Q409 521 415 525Q421 531 420 534Q418 538 453.5 572.0Q489 606 528 638Q542 649 569.5 661.5Q597 674 616 677Q620 678 628 678ZM605 645Q596 645 593 644Q586 643 573.0 637.5Q560 632 560 630Q560 627 552 621Q550 618 547.5 614.5Q545 611 544 608Q543 602 513 571Q503 561 490.5 550.5Q478 540 476 540L468 536Q453 524 438 524Q430 524 424.0 521.0Q418 518 416 513Q415 507 418.5 477.5Q422 448 425 439Q427 433 427 425Q427 415 426 406L423 375Q422 372 422 357Q422 333 424 329Q425 328 426.5 328.0Q428 328 428 329Q428 331 432.5 336.5Q437 342 441 346Q445 350 445 356Q445 364 448 368Q450 373 449 374Q449 377 451 378Q455 383 464.0 404.5Q473 426 487 463L494 488L496 500Q496 504 492.0 507.0Q488 510 480 514Q469 521 469 523Q471 525 491 525Q511 525 516 521Q537 505 542 505Q546 505 552.0 498.0Q558 491 560 483Q561 479 561 473Q561 470 558 458Q554 443 549.5 428.0Q545 413 541 406Q539 401 537 392Q535 386 535.0 383.5Q535 381 538 377Q540 375 546 367Q548 363 551 359Q553 357 554.5 358.0Q556 359 558 363Q562 371 569.0 384.0Q576 397 580 408L587 419L593 429Q593 431 597 439L602 452Q603 460 614 484Q616 489 619 501Q620 503 621.0 508.5Q622 514 625 522Q628 534 632 560Q637 582 637 589Q638 596 632.0 618.0Q626 640 621 643Q617 645 605 645Z"/>
    <path transform="translate(302.34,208.70) scale(0.016000,-0.016000)" d="M607 725Q621 711 623 702Q628 691 630.5 678.0Q633 665 632 662Q632 655 634 653Q635 649 636.5 649.0Q638 649 642 650Q660 655 700 655Q719 655 735 653Q767 647 781.0 643.0Q795 639 809 632Q826 621 836 612Q848 600 852.0 594.0Q856 588 858 577Q861 564 860 559Q858 554 854.5 552.5Q851 551 837 550Q832 550 823 547Q819 547 817.0 547.5Q815 548 813 551Q810 556 805 554Q801 552 777 552H764Q755 552 744 549Q724 541 681 544Q673 544 669 546Q666 548 666 548L681 552Q690 555 702.0 560.5Q714 566 724 573Q731 577 741.0 586.5Q751 596 751 598Q751 602 714 610Q708 611 696 611Q677 611 663 606L649 604Q642 603 631.5 600.5Q621 598 612 594Q603 591 581 591Q559 589 547 587Q539 585 529.0 581.5Q519 578 514 575Q509 571 492.0 562.5Q475 554 461 548Q446 545 445 545Q433 545 409 537Q397 534 393 532Q387 530 385.0 528.5Q383 527 380 521Q374 511 372.5 504.5Q371 498 371 486Q371 450 372 449Q372 445 368 445Q362 443 361 441Q359 440 357.0 440.0Q355 440 351 442L339 448Q335 450 333 454L330 461Q325 466 319 489Q318 500 320.0 510.5Q322 521 326 526L329 532Q329 536 331.5 542.0Q334 548 338 552L345 564Q350 575 363.5 593.0Q377 611 394 629Q402 638 407 638Q412 638 415 628V625Q415 618 406 608Q401 603 393.0 589.5Q385 576 382 568Q378 557 375 553Q373 547 374 547Q377 547 377 548Q379 551 381 551Q381 551 393 559Q399 565 405 569Q410 569 415 573Q429 582 469.5 598.0Q510 614 531 618Q550 622 550 625Q550 626 542 626Q537 626 525.0 629.5Q513 633 507 636Q505 638 505 639Q505 641 514 645L531 657Q539 664 552.0 678.5Q565 693 568 699Q572 704 572.0 706.5Q572 709 570 714Q568 722 563 732Q557 744 550 748Q543 752 541.5 754.5Q540 757 544 760Q560 771 607 725ZM617 534Q644 534 666 520Q675 515 683.5 507.5Q692 500 692 497Q692 496 696 486Q700 479 698 473Q695 461 679 439Q675 433 672.5 431.5Q670 430 667 432Q665 434 663.5 433.5Q662 433 659 429Q658 427 656.5 425.0Q655 423 654 422Q654 420 651 420Q646 420 643 417Q642 413 633 411Q624 408 620 404L613 397L621 389L628 381L648 383Q679 385 718 385Q747 385 755 383Q796 375 823 364Q834 359 849.5 348.5Q865 338 866 334Q869 328 869 318Q866 314 846.5 310.5Q827 307 814 307Q806 307 793.0 309.5Q780 312 779 313Q773 315 762.5 317.0Q752 319 743 319Q733 320 715.5 318.5Q698 317 685 314Q680 313 672.0 311.5Q664 310 662.5 309.0Q661 308 661 305Q661 304 664 289Q667 280 667 252Q667 229 664 214Q664 204 660 180Q659 172 657.0 164.5Q655 157 655 153Q654 142 644.5 117.5Q635 93 630 85Q623 78 621 69Q619 63 613.0 56.5Q607 50 593 37L584 27L579 20L567 22Q556 24 551 27Q548 30 544 30Q540 30 533 37Q529 41 517 46Q513 47 509.5 49.0Q506 51 502 52L490 59Q485 59 480 66Q476 70 471.5 72.5Q467 75 459 77Q446 82 439 82Q436 82 429 87Q424 93 425 94Q427 95 432.0 94.5Q437 94 443 94Q454 94 474 101L489 105L531 113Q544 114 556.5 120.0Q569 126 575 134Q582 144 591.0 165.0Q600 186 602 199Q612 240 612 272Q612 286 611 292L610 304L599 303L579 299Q573 299 564 296Q558 296 546 292Q543 291 526 288Q511 285 509 284Q497 281 495 281Q490 281 486 279L483 277Q483 277 472 268Q464 260 460 258Q452 255 437.5 252.5Q423 250 413 249Q406 249 390.0 256.0Q374 263 362 271Q351 279 346.5 283.5Q342 288 342 292Q342 299 335 310Q325 329 331 332Q342 332 352 331Q359 330 367 330Q373 330 385 334Q406 342 418 344L466 353Q556 369 561 372Q567 375 567 386Q566 401 566.5 409.5Q567 418 567 418Q568 418 574 428Q576 433 577.5 435.5Q579 438 583 439Q590 441 592 444Q596 448 603.0 458.5Q610 469 612 474Q612 475 611 475Q607 475 602 471Q595 464 544 440Q531 435 520 433Q516 432 506 432Q490 432 483 437Q479 439 474.5 446.0Q470 453 470 457Q470 461 466.0 470.0Q462 479 459 482Q456 485 456 489Q456 493 454 495L453 497Q453 499 457.5 499.0Q462 499 466 498Q470 496 473 496Q479 496 498 504Q538 519 588 530Q608 534 617 534Z"/>
    <path transform="translate(329.54,208.70) scale(0.016000,-0.016000)" d="M450 677Q449 674 449 662Q449 647 451 645Q454 642 456 628Q457 623 459.5 615.5Q462 608 463 604Q468 594 470.0 581.0Q472 568 474 541Q474 515 476 515Q476 513 496 524Q526 537 548 543Q570 551 577.0 552.5Q584 554 600 554Q632 554 645 547Q648 545 654 545Q659 546 660 542L668 532Q673 526 675 519Q678 508 681 508Q684 508 687.0 509.5Q690 511 693 512Q719 525 754 525Q773 525 798 520Q825 514 857.0 501.0Q889 488 906 475Q924 462 930.0 456.0Q936 450 941 441Q945 432 946.0 428.5Q947 425 946 417Q946 407 941 399Q937 392 935 386Q934 380 925.5 369.0Q917 358 915 359Q913 361 913 363Q913 368 912.0 368.5Q911 369 908 366Q904 363 890.0 357.5Q876 352 861 347L840 341Q834 338 825.0 336.0Q816 334 809 334Q804 334 792 330Q782 325 779 326L769 324Q765 322 756 322H754Q748 322 730 312Q719 306 714.0 304.0Q709 302 707 304Q704 307 706 307Q706 307 705.5 308.0Q705 309 704 309Q703 311 701.5 311.5Q700 312 698 311L685 310Q680 309 678.5 309.5Q677 310 679 311Q683 313 690 320Q707 336 719 339Q724 339 729 344Q732 348 740 352L755 360L769 369L783 378L796 386Q801 389 801 391Q801 394 804 395L816 403L830 415Q838 423 840 427L844 433L840 436Q836 440 813 449Q784 461 770 461Q762 461 753 458Q746 456 742.0 453.0Q738 450 733 444Q724 435 724 431V428Q724 425 718 419Q713 414 708.0 403.0Q703 392 702 382Q700 374 698.0 371.0Q696 368 690 368Q674 368 668.5 369.5Q663 371 657.0 375.0Q651 379 649 381Q629 396 628 406L624 414Q620 419 614.0 447.0Q608 475 608 492Q608 500 605.5 506.0Q603 512 599 512Q588 512 563.5 503.5Q539 495 523 486Q489 467 492 469Q480 464 474 458Q473 456 471 435Q463 354 450 336Q448 335 445 329Q444 328 444 325Q444 321 454 306Q472 279 476 282Q478 282 478 287Q478 298 486 288Q490 282 502 281Q515 279 528.0 273.5Q541 268 541 265Q541 262 534 251L526 237V231Q526 227 519 222Q515 219 512.0 218.5Q509 218 504 219Q496 220 481.0 224.5Q466 229 461 233Q455 237 444.5 248.0Q434 259 426 270L418 283L411 276Q405 270 402 271Q401 271 385 260Q370 247 368 247Q365 247 360 242Q352 236 350 236L346 235Q346 234 330.5 226.0Q315 218 313 218Q311 218 307 214Q303 210 300 210H293Q284 210 283 206Q282 204 280.0 203.5Q278 203 274 204Q264 205 257 204Q252 202 252 205L246 217Q241 225 237.5 234.5Q234 244 235 245Q235 249 234 251Q231 257 231 264L227 286L223 302L225 318Q237 363 327 424L353 441L352 465L351 539Q351 588 354 591Q357 595 359 591Q363 589 364 570Q364 559 369 529Q370 523 371.5 514.5Q373 506 374 499Q381 462 384 462Q386 462 397.5 469.0Q409 476 410 478Q410 478 416 518L425 580L432 630Q437 668 443 680Q446 686 449.5 684.5Q453 683 450 677ZM396 417Q395 418 395 415Q395 414 395.5 413.5Q396 413 396 414Q397 415 397.0 416.0Q397 417 396 417ZM364 398Q363 398 349 388Q336 377 320 368Q305 359 288.0 343.0Q271 327 267 318Q261 306 261 297Q261 285 271 275Q283 262 291 262Q296 262 301 266Q308 271 312 272Q327 279 347.5 306.5Q368 334 374 356Q377 365 377 367Q377 371 374 377Q373 381 371.5 385.0Q370 389 369 392Q367 398 364 398Z"/>
    <path transform="translate(356.74,208.70) scale(0.016000,-0.016000)" d="M803 771Q814 771 829 768L842 766L857 750Q868 738 870.5 734.0Q873 730 874 718Q875 714 875 702Q875 685 873.0 668.5Q871 652 867 646Q865 644 865 635L864 626L873 624Q880 621 895 619L916 614Q922 611 932.5 602.0Q943 593 943 590Q943 586 948 576Q952 570 952.5 564.5Q953 559 952 551Q950 533 947 524Q942 514 942 505Q942 498 938.0 490.5Q934 483 924 468L912 447L958 445Q1014 444 1049.5 436.5Q1085 429 1110 413Q1120 407 1125 396Q1128 391 1128.5 387.5Q1129 384 1128 383Q1125 383 1119 377Q1116 373 1113.0 372.5Q1110 372 1106 373Q1084 376 1071 376Q1061 376 1058 373Q1054 370 1038 370L1000 372Q989 373 969 373Q913 373 832 352Q823 350 802 348L773 342Q761 338 744 338Q714 337 688 321Q678 315 669 312Q659 307 647 303Q640 300 634.0 299.0Q628 298 617 298Q597 298 588 301Q575 304 545 327L536 333Q535 333 534.5 326.0Q534 319 534 313Q534 294 532 280Q530 264 530 221Q529 188 527.5 176.0Q526 164 522 157Q521 154 519 154Q517 154 511 157Q492 166 483 179Q480 185 469 196Q460 205 458 211L449 223Q444 230 436.5 246.5Q429 263 430 265Q432 266 439.0 261.5Q446 257 454 250Q463 244 471.0 240.5Q479 237 483 238Q488 240 486 303Q486 318 488 338Q489 345 489 360Q489 387 484 389H483Q479 389 473.0 384.0Q467 379 465 373Q463 368 458.5 363.0Q454 358 452 358Q450 358 446 351Q436 341 436 341Q431 337 425.0 331.0Q419 325 417 321Q416 318 398 302Q371 280 371 267Q371 263 373 263Q376 263 393.0 276.5Q410 290 426 305L433 312L432 299Q432 287 430 281Q428 277 428 270Q428 263 426 259Q413 238 401 223Q394 218 392 212Q387 205 384 204Q378 200 370 200Q364 200 358 203Q354 204 352.5 207.0Q351 210 351 214Q349 224 350 226L346 234Q341 240 339 247Q339 254 335 258Q333 263 331 274Q327 287 326 288Q324 289 324 310Q324 340 328 372Q335 411 350.0 466.0Q365 521 374 540Q375 542 380 556Q383 566 387.0 574.5Q391 583 393 586Q394 586 396 579L402 560L406 549L402 532L395 501Q390 484 390 473L389 459L397 460L424 463H436Q444 463 455 458Q467 453 477 443L487 434V451L488 505Q488 542 487 543L484 559L480 581Q479 586 477.0 587.0Q475 588 468 588Q444 588 436 577L430 572L423 578Q417 584 417 588Q417 593 439 603Q459 612 459 614Q459 616 469.5 621.0Q480 626 491 629Q495 630 501 630Q507 630 512 628Q523 624 528 617Q538 602 538 591Q537 585 535.5 539.5Q534 494 533 427Q533 414 534 407Q535 397 537.0 395.0Q539 393 552 389Q555 388 561 388Q568 388 573 389Q599 394 639 412Q674 428 695 428Q704 428 728 432Q740 434 768 437Q789 438 792.5 440.5Q796 443 804 458Q813 477 824 494L836 513Q836 515 843 524Q859 548 862 560Q864 565 861 566H858Q849 566 847 561Q838 534 831 520L816 490Q807 472 802.0 464.0Q797 456 794 457Q793 458 792.0 458.0Q791 458 790 457Q790 456 785 456Q783 456 775 451Q768 446 762 446Q755 446 751 444Q747 442 742 442Q712 442 712 451Q712 455 709 456Q707 457 705 465Q705 469 706.5 471.0Q708 473 712 475L723 484Q727 487 731.5 498.5Q736 510 736 514Q736 516 729 514Q717 510 706 510Q694 510 682 513Q668 516 663.5 519.5Q659 523 656 536Q655 545 652 550Q652 555 653 555L654 557Q654 560 652.5 563.5Q651 567 649 569Q647 571 647 578V585L657 584Q660 583 669 583Q683 583 690 586L706 589Q717 589 731 593Q731 593 759 601Q773 604 774 607Q779 617 789.0 652.0Q799 687 799 695Q799 700 796 700Q792 700 774 691Q753 680 744 680Q740 680 734 682Q728 685 723 685Q720 685 711.5 695.0Q703 705 701 710Q700 715 694 723Q688 731 688 733Q688 738 680 744L672 752L681 753Q689 755 694 753Q697 752 713.0 753.0Q729 754 731 756Q738 760 762 764Q787 771 803 771ZM417 424Q408 424 399.0 422.5Q390 421 389 419Q389 418 388.0 416.5Q387 415 385 414Q381 408 380 386Q373 322 373 298Q373 287 375 289Q376 289 384 305Q392 320 393 320L395 324Q395 329 400 337Q409 355 416.5 380.5Q424 406 425 418Q425 422 423.0 423.0Q421 424 417 424ZM889 311Q915 311 920 307Q922 306 925.5 303.5Q929 301 935 297Q945 290 961.0 273.5Q977 257 985 245Q991 236 999 230Q1008 224 1008 214Q1008 211 1006 205Q1004 197 1005 195Q1005 192 1002 190Q998 186 994 178Q988 166 980 158Q972 148 972 147Q972 145 963 136Q959 131 957.0 128.0Q955 125 955 121V118Q955 114 951 110Q947 106 944 98Q942 92 937.5 87.0Q933 82 928 82Q925 82 915.5 76.5Q906 71 902 66Q898 62 892 64L868 67Q857 68 848.0 67.0Q839 66 824 63Q801 58 754 58Q740 58 732.5 58.5Q725 59 717 63Q707 68 702 75Q701 80 687 92Q670 106 662.0 126.5Q654 147 651 183Q650 193 652.0 209.5Q654 226 657 232L661 241Q661 242 667 252Q673 260 674 260Q675 260 675 257Q675 254 672 246Q667 235 667 224Q667 213 672 213Q676 213 691 228Q714 253 767 279Q784 288 816.0 297.5Q848 307 870 310Q876 311 889 311ZM857 256Q835 256 800 245Q782 238 759 224L745 216Q742 216 730.0 210.0Q718 204 710 199Q704 193 701 193Q697 193 697 190Q697 186 704 179L713 167Q715 160 721 156L731 143Q735 138 737.0 137.5Q739 137 745 138Q751 138 760 141L801 150L835 159L849 173Q878 202 885 220L889 232L885 241Q879 250 876 252Q871 256 857 256Z"/>
    <path transform="translate(423.94,208.70) scale(0.016000,-0.016000)" d="M766 763Q774 763 782.5 761.5Q791 760 797 757L817 748Q834 740 853.5 715.5Q873 691 880 666Q888 644 888 611Q888 565 883 557Q880 552 879 542Q875 528 874 527Q871 526 871 521Q871 515 870 513L864 501Q859 491 856 488Q851 483 851 479L847 470Q844 466 844 460Q844 456 842 454Q840 454 840 448L839 441Q836 440 834 410Q832 388 834 386Q836 384 854.5 381.5Q873 379 893 378Q935 376 961 365Q970 362 979.5 360.5Q989 359 990 360Q993 360 998 356Q1003 351 1005 351Q1006 351 1015 338Q1023 325 1027 321Q1031 317 1035.0 301.5Q1039 286 1039 279Q1039 274 1033.5 263.0Q1028 252 1024 249L1017 244Q1015 244 1013.5 243.0Q1012 242 1012 241Q1012 238 1007 238Q1002 238 998 236Q993 236 990 237L985 238Q979 238 967 234Q954 230 946 230Q941 230 930 227Q918 223 903.5 219.0Q889 215 880 213L875 212L862 205Q850 197 845 198Q840 200 836 195Q831 192 819.0 187.5Q807 183 793 180Q773 175 763 169Q760 166 755 166Q753 166 737 158Q723 151 719 151Q716 151 706 146Q694 141 688 141Q686 141 675 137Q673 135 661.0 132.5Q649 130 647 131Q646 132 658.5 140.0Q671 148 679 151Q693 156 699 161L715 169Q725 174 735 182Q780 213 783 213Q787 214 805.0 227.5Q823 241 823 243Q823 246 827.0 249.0Q831 252 834 252Q838 252 839 255L840 258Q840 260 837 260Q832 260 828 259Q819 256 806 256Q793 256 781 260Q770 265 764.0 269.5Q758 274 750 285Q739 298 736.5 303.5Q734 309 731 321Q730 326 725 347Q722 359 722 376Q722 402 728.0 432.5Q734 463 743 484L745 491L770 552Q772 555 778 575L784 596Q789 611 792.5 633.0Q796 655 796 673Q796 681 792.5 694.0Q789 707 784 715Q782 719 770 734Q766 738 763.5 741.0Q761 744 762 744Q764 744 760.0 748.0Q756 752 753 754Q752 754 752.5 755.0Q753 756 755 757L758 759Q756 759 758 761Q760 763 766 763ZM595 541Q595 533 594 528Q592 521 589.5 501.5Q587 482 587 472Q587 460 585.0 442.5Q583 425 581 417L576 397L572 380Q570 374 570 364Q570 356 568 354Q567 354 566.5 352.5Q566 351 567 350L563 338Q558 328 554.0 317.0Q550 306 549 301L543 293Q536 286 529 286Q526 286 520 288Q515 290 504.5 301.5Q494 313 488 323L479 338L473 351L465 367Q462 371 461.0 371.0Q460 371 456 369Q448 363 442.5 352.5Q437 342 437 334Q437 323 435 318Q433 314 433.0 310.5Q433 307 435 303Q439 296 437 294Q436 294 436.5 293.0Q437 292 438 291V290Q438 286 433.5 278.0Q429 270 427 271Q425 271 425 270Q425 269 420 266Q415 262 413 259Q413 255 410 252Q409 250 407.0 250.0Q405 250 401 251Q393 253 393 255Q393 255 385 265Q380 270 377.5 274.0Q375 278 374 287Q371 301 364 309Q358 319 359 320V325Q357 329 357 332L344 395Q341 405 337.0 410.5Q333 416 329 415L314 412Q310 411 304 411Q298 411 295 413L288 417Q287 417 289 424Q290 428 293.0 430.5Q296 433 302 435Q311 439 325 439Q347 439 363 428Q391 408 396 389Q398 384 399 384Q400 384 405.5 390.5Q411 397 416 403Q423 412 433.5 419.5Q444 427 454 430Q459 432 464 432Q469 432 473 430L486 427Q496 427 511 412L522 403Q524 403 533 418Q536 427 542 434Q567 473 579 507Q587 529 590 532Q593 537 593 541Q594 545 595 541Z"/>
    <path transform="translate(451.14,208.70) scale(0.016000,-0.016000)" d="M622 791 633 790Q645 788 647 787Q651 785 656 785Q662 785 669.0 780.5Q676 776 687 767Q724 737 737 719Q742 711 743.0 707.5Q744 704 744 690Q744 668 739.5 660.0Q735 652 720 648Q717 647 712 647Q707 647 695 650Q681 653 674.5 657.0Q668 661 666 669Q665 674 656.5 682.0Q648 690 642 692Q636 694 636 695Q636 697 651 704Q658 707 659 710V712Q659 717 658.0 723.5Q657 730 655 735L651 747Q648 755 639 763Q630 770 628 770Q627 770 624 784ZM388 688Q402 688 430.0 666.5Q458 645 461 632Q464 624 462 617Q461 607 450.0 586.5Q439 566 429 554Q415 539 407 525Q394 506 379 486Q362 462 362 460Q362 458 365 455Q371 452 371 443Q371 437 368 422Q362 397 362 397Q362 396 361.0 392.0Q360 388 360 384L356 355Q354 340 350 324Q347 314 347 306Q347 304 348.0 304.0Q349 304 351 306Q355 310 369.0 330.0Q383 350 394 367Q405 385 406 382L402 366L394 341Q393 337 391.5 331.0Q390 325 388 320Q386 312 386 309Q386 301 389 301Q391 301 391 298Q391 294 389 290Q378 264 376 246Q374 233 372 231Q370 229 370 225L365 210Q360 199 357.5 192.0Q355 185 356 178L357 171Q357 160 347 152Q337 146 323 147Q320 148 310.0 157.5Q300 167 300 169Q300 170 291 179L281 187L283 197Q283 207 285 215Q285 221 287 229Q289 235 291 271Q293 297 295.5 318.0Q298 339 304 370L309 397L310 404L303 396Q295 388 294 388Q291 388 282 379Q273 370 264.0 361.5Q255 353 250 350Q248 349 230 333Q223 326 217 326Q213 326 209 330Q206 333 202 333Q198 334 196.0 338.0Q194 342 194 347Q194 351 196 355Q198 360 200 360Q202 360 217.0 375.5Q232 391 240 401Q251 414 253 414Q255 414 261 424Q267 434 270 437Q274 440 274 443Q274 446 276 446Q279 446 281.5 449.0Q284 452 284 454Q284 459 287 460Q291 462 291 464Q291 468 300 479Q320 504 356.0 563.0Q392 622 400 642Q401 644 401 647Q401 654 389 669Q378 685 384 687ZM830 621Q844 619 861 619Q874 619 877.5 618.0Q881 617 885 613Q895 603 905 603Q908 603 908 602Q908 602 919 589Q925 583 927.0 579.5Q929 576 929 569V556Q929 553 924.0 548.5Q919 544 917 544Q915 544 913.5 543.0Q912 542 910 541Q905 537 897.0 535.0Q889 533 882 534Q878 535 866 535Q846 535 820.0 532.0Q794 529 781 525Q756 516 751 516Q750 516 750 517Q750 520 761 528Q770 534 776 540L780 545L758 543Q704 540 692 531L682 526Q676 524 659.0 514.5Q642 505 635 498Q621 487 612 481Q599 472 594 466L580 455Q575 453 562 444Q554 439 539 433Q527 431 520 431Q495 431 478 443Q471 449 468 449Q466 449 455.0 460.0Q444 471 434 482Q412 508 411 517Q411 521 412.0 522.0Q413 523 418 523H436Q473 522 495.5 525.0Q518 528 539 537Q549 542 553 542L562 546L600 561Q608 564 618 569Q620 572 624 572L629 573Q632 576 651.0 583.0Q670 590 688 595Q702 600 702 600Q703 601 708 601Q715 602 726.0 605.0Q737 608 738 609Q740 611 757.5 614.5Q775 618 792 619ZM687 474Q698 474 704 470Q710 468 717 468Q725 468 731.0 466.0Q737 464 738 461Q740 455 740 453Q740 444 729 433Q720 422 715 422Q711 422 698.0 415.5Q685 409 679 405Q679 404 676.5 402.5Q674 401 671 400Q663 395 653.0 387.0Q643 379 643 377Q643 376 645 376Q648 376 668 386Q677 390 682.0 391.5Q687 393 694 392Q709 389 719 384L735 378V370Q735 363 737 357Q738 355 736.5 353.5Q735 352 732 350Q725 347 724 341Q721 334 716 330Q709 327 708 324Q708 324 692 306Q679 293 668.5 288.0Q658 283 646 283Q637 283 631 279Q621 275 603.0 254.0Q585 233 591 233Q594 233 616 243L660 263Q681 272 685 276Q699 283 711 287Q737 297 761.5 302.5Q786 308 801 308Q812 308 814 306Q818 302 828 302Q834 301 838.0 298.5Q842 296 848 290Q864 272 867 256Q868 244 887 216Q897 201 900 189Q903 177 903 173Q903 167 898 162Q898 162 888 152Q884 145 879 145Q873 145 869 140Q863 132 824 98Q811 85 795.0 74.5Q779 64 768 60Q756 56 753 53Q739 45 719 48Q710 51 699 51Q692 51 687.5 53.5Q683 56 676 63Q674 64 669.5 67.0Q665 70 662 70Q656 71 645.0 68.5Q634 66 628 62Q615 52 597 55Q576 58 573 66Q571 71 569 71Q568 71 566 78Q566 85 562 93Q555 108 559 114Q561 116 561 118L557 126Q550 137 547.5 145.5Q545 154 543 173Q541 201 551 220Q562 235 573 247Q579 254 586.0 262.0Q593 270 598 277L607 286L603 290Q599 294 599 295L597 311L594 333V336Q594 340 597 344L609 361Q618 372 624 383Q629 389 632 395H631Q630 395 620 391Q611 387 601 387Q590 387 580 389L564 392L561 400L559 406Q559 405 561 405Q565 405 570.0 407.5Q575 410 575 412Q575 414 578 414Q579 414 585 417Q591 420 592 420Q597 420 610 428Q615 431 620.0 434.0Q625 437 629 438Q638 444 643 449Q657 460 660 462Q668 466 672 471Q674 474 677.5 474.5Q681 475 687 474ZM775 266Q764 266 752 262Q746 260 742.5 258.5Q739 257 738 253Q736 247 729 242Q723 238 714 229Q705 222 684.0 212.0Q663 202 646 196Q626 189 608 192Q604 193 603.5 191.0Q603 189 603 185Q603 178 606.5 169.0Q610 160 616 153Q623 144 623 141Q623 140 631.0 140.5Q639 141 656 144Q671 146 678 148Q681 150 694 152H699Q704 152 710 149Q718 145 720 145Q727 145 758.0 184.0Q789 223 792 236V239Q792 243 789 262Q788 265 785.0 265.5Q782 266 775 266Z"/>
    <path transform="translate(478.34,208.70) scale(0.016000,-0.016000)" d="M679 818Q692 818 702.5 810.0Q713 802 720 791Q723 784 724.5 770.5Q726 757 725 748L722 728L720 712V708Q720 705 724 701Q729 697 740.5 692.0Q752 687 756 687Q760 687 764.5 684.0Q769 681 769 679L772 673Q775 670 775 666Q775 662 778 659Q785 649 780 642Q777 639 777 634Q777 631 771 625L765 619L780 606Q793 593 805.0 584.0Q817 575 822 575Q826 575 837 569Q847 564 867 559Q883 556 887.5 553.5Q892 551 892 546Q892 541 897 534Q901 527 901 522Q901 518 898 506Q896 498 893.5 496.0Q891 494 884 494Q879 494 869.5 494.5Q860 495 857 494Q852 492 825 486Q817 483 810 476Q800 468 799 468Q797 468 780 456L752 438Q742 432 740 427Q740 422 736 418Q724 407 720 405Q712 400 712 392Q712 387 715 381Q718 374 721.5 372.0Q725 370 750 364L801 350Q843 338 872.5 322.5Q902 307 901 297V295Q901 291 903 285Q905 281 905 260Q905 242 903 240Q901 236 901 233L900 226Q898 224 896 216Q892 206 890 203Q886 199 886 197Q884 192 877.5 182.5Q871 173 865 166Q861 162 859 163Q856 163 849 158Q841 151 833.0 145.5Q825 140 822 138Q821 138 817 134Q814 131 810 131Q806 131 795.0 125.0Q784 119 779 114Q773 108 768 108L758 106Q756 104 746 102Q739 102 732 97Q727 92 725 92Q724 92 716 84Q707 75 704 74Q703 74 693 67Q688 62 686 62Q685 62 679 54Q675 45 666 42Q659 39 651 34Q646 31 638.5 30.0Q631 29 629 31Q628 32 637 40Q649 52 652 57L666 78L681 100L686 109L679 111Q673 114 669 114Q666 114 660 118L646 125Q638 127 633 132Q621 140 621 140Q615 145 605.0 159.0Q595 173 591 183Q587 194 585 194Q580 194 576.0 207.0Q572 220 572 235Q572 251 574.0 258.0Q576 265 581 270Q588 276 602.0 282.5Q616 289 625 290Q633 292 650 292Q677 292 695 284L709 277Q715 274 729.0 259.5Q743 245 746 239L752 226L756 211Q757 202 760 201Q767 200 788.0 219.5Q809 239 817 254Q821 262 824.0 274.5Q827 287 825 290Q822 294 787 301Q776 303 775 304Q774 305 747 309Q733 311 725.0 314.0Q717 317 708 322Q682 336 676 346Q675 351 667 358L660 365L650 361Q633 353 602.0 345.5Q571 338 556 338Q541 338 518 348Q496 359 479.0 375.5Q462 392 462 403Q462 417 458 420Q454 422 460.0 429.5Q466 437 488 458Q496 464 499 464Q501 464 501 463Q501 461 496 456Q475 432 475 424Q475 420 485.5 415.5Q496 411 505 411Q514 411 544 421Q579 433 608 446L620 451L634 459Q646 466 648 471Q649 474 647 508Q645 545 646 555V563Q646 571 644.5 574.0Q643 577 641 573Q640 572 631 567Q615 557 609 551Q594 538 592 538Q590 538 580.5 531.0Q571 524 563 516Q547 502 543 502Q541 502 541 503Q541 507 554 517Q607 568 619 583Q620 585 614.0 592.0Q608 599 595 612Q569 639 570 640Q570 641 582 641Q601 641 602 640Q604 638 615.0 642.5Q626 647 639 654L658 665L660 677L663 704Q664 738 670 766L674 791Q675 798 674.5 801.0Q674 804 671 805Q668 806 668.0 807.5Q668 809 669 812Q669 813 670.0 813.5Q671 814 672 813Q675 813 676 816Q678 818 679 818ZM397 722Q399 722 410 716Q424 709 435.5 700.0Q447 691 446 688Q445 687 451 678Q463 661 463 637Q462 624 459.0 615.5Q456 607 451 605Q447 603 447 601Q447 598 442 591L438 583Q438 581 434 579L424 566Q410 546 393 529Q387 522 380.0 512.5Q373 503 373 501Q373 498 374 497Q375 496 378.0 485.5Q381 475 382 469Q381 460 379.5 443.5Q378 427 377 418L376 397Q376 375 375 367L373 352Q374 351 395.5 383.0Q417 415 417 417Q417 418 436 448Q447 464 448 464Q448 462 446.0 456.0Q444 450 441 444L435 431L429 417Q423 401 422 397Q419 387 417 385Q416 385 414 374Q414 365 410 355Q406 345 406 340V337Q406 330 405 328Q404 322 407 319Q409 317 409 313Q409 308 408 304Q405 285 397 268Q392 256 392 253Q392 248 390 246L389 237Q389 229 384 214Q378 196 378 195Q378 190 375 185L368 168Q364 156 361 153Q358 150 358 146Q358 143 354.0 138.5Q350 134 348 134Q346 134 341 139Q337 143 334 143H333Q327 143 319 155Q318 158 307 176Q297 191 297 194Q297 197 291.5 203.0Q286 209 281 210Q277 211 277 214Q277 218 282 223Q288 229 290 233Q298 253 300 319Q302 356 304 380Q306 404 306 411Q306 423 304 423Q300 423 298 422Q293 419 275.5 402.0Q258 385 258 383Q258 380 254 382Q248 382 246 380Q244 378 241.5 378.0Q239 378 237 380L230 383Q226 383 226 385Q226 389 221 399Q215 411 215 416Q215 421 210 426Q206 431 206.0 435.5Q206 440 210 439Q213 438 213 440Q213 441 216 441Q218 439 223 448Q232 460 253 481Q271 499 319 555Q323 559 323 566Q323 568 324 568Q327 568 330 575Q333 583 335 583Q335 583 338 586L351 606Q376 644 376 649Q376 651 379 654Q383 660 385.5 665.5Q388 671 389 674Q389 678 392 679Q397 684 397 694Q397 698 395 708Q393 718 394 719Q394 722 397 722ZM748 612Q748 612 735 609Q722 607 717.5 604.5Q713 602 711.5 595.0Q710 588 709 570Q709 557 706 536Q705 525 704.5 514.0Q704 503 705 497H706Q709 497 713.0 499.0Q717 501 717 502L720 503Q722 503 726 507Q730 511 735 511Q742 513 743 515Q744 516 746.5 517.5Q749 519 753 520Q760 522 762 525Q764 527 767 527Q769 527 769 529Q769 531 778 535Q783 537 784.0 538.5Q785 540 783 543L781 549L774 565L761 595Q755 610 753.5 612.0Q752 614 748 612ZM666 242H651L647 235L643 227Q643 227 653 217Q662 208 662 207Q662 204 667.5 200.0Q673 196 680 195Q687 194 690.0 194.0Q693 194 697 197L701 201L698 213Q692 235 684 240Q680 242 666 242Z"/>
    <path transform="translate(505.54,208.70) scale(0.016000,-0.016000)" d="M555 610Q557 610 558.5 609.5Q560 609 559 606Q558 602 562 599Q565 597 567 589Q567 583 569 581Q571 579 581 579Q598 579 611 584Q623 587 631 587L665 589Q672 590 680 590Q687 590 689.0 588.0Q691 586 689 581L688 566Q687 556 681 549Q678 545 676.5 542.0Q675 539 676 536Q679 531 677 531Q676 531 672 525Q671 521 668 518Q665 518 657.5 509.0Q650 500 649 496Q647 490 640 486Q634 483 632 483L622 485Q614 488 596 490Q588 490 582.0 492.0Q576 494 569 498Q560 503 555.5 506.5Q551 510 549 514L539 527Q525 541 525 565Q525 570 525.5 572.5Q526 575 528 576Q530 577 530 583Q530 584 529.5 585.0Q529 586 530 587Q530 598 542 605Q549 610 555 610ZM775 607Q776 607 783 601Q786 597 794 593Q814 590 848 578Q868 571 874.0 567.5Q880 564 891 555Q907 541 908 537L919 522Q930 503 936 485L942 471Q945 466 947 454Q949 443 952 436L954 428Q954 422 945 422Q939 422 939 419Q938 416 935.5 416.0Q933 416 928 419L916 423L903 430Q893 435 889 436Q880 437 872 447Q865 455 860.0 458.0Q855 461 850 461Q848 461 846.5 461.5Q845 462 846 464Q847 468 840.0 472.5Q833 477 822 481Q808 485 808 487Q808 490 821 491Q828 492 838 502Q847 513 847 515Q847 518 841.0 524.0Q835 530 828 534Q810 543 803.5 548.0Q797 553 797 558Q797 561 787 571Q769 586 764 591Q751 602 751 602L762 603Q771 603 773 605Q773 607 775 607ZM369 512Q370 510 370 504Q370 495 367 487Q365 480 366 478V476Q366 473 362 463Q358 451 359 450Q359 445 355 441Q349 431 345 423L333 397Q325 381 323.0 372.0Q321 363 321 347Q321 328 317 317L312 299Q311 294 309.5 292.0Q308 290 303 287Q297 284 293 280Q292 277 283 277Q275 277 269 283Q264 288 264 290Q265 291 260 295Q255 297 251.5 302.5Q248 308 248 312Q248 316 247 317Q246 318 246 323Q246 330 247 335Q249 350 247 359V363Q247 367 250 371L258 385Q264 396 273.5 411.0Q283 426 291 436Q300 447 316.0 463.0Q332 479 343 489Q356 500 359 506L365 514Q368 515 369 512ZM414 482Q417 475 421 470Q427 462 430 453Q447 412 464 392Q471 383 472 379Q475 374 487.5 366.5Q500 359 512 356Q530 350 530 350L544 346Q553 346 563 343Q579 341 601 341Q640 341 662 345Q685 350 690 350Q703 352 708.5 354.0Q714 356 715 360Q716 364 715.0 381.0Q714 398 712 399Q711 400 711 410Q711 435 708 442L707 448V449Q709 449 715 442Q723 434 728.0 432.0Q733 430 739 431Q741 432 744 432Q747 432 753 422Q757 416 766.0 407.0Q775 398 778 398Q779 398 782 395Q785 390 795 384L811 369L821 357Q826 352 831.0 339.0Q836 326 835 322Q835 320 827 316Q819 312 821 310Q821 310 821.5 309.5Q822 309 822 309Q822 307 818.0 304.0Q814 301 807 298Q803 296 788 281Q776 267 772 267L762 263Q739 251 732 251Q727 251 719 248Q714 246 702 246Q699 247 696.5 247.0Q694 247 693 246Q692 245 690.0 245.0Q688 245 687 244Q671 244 657 243L639 242Q630 242 618 246Q606 251 593 253Q554 263 549 266Q545 268 535 268Q526 269 505 278Q493 284 484.5 290.5Q476 297 463 310Q447 325 441.5 331.0Q436 337 431 348Q423 362 423 366Q423 367 417 385L407 415Q407 419 400 445Q397 457 397 465Q397 476 401 481Q405 486 408.5 486.5Q412 487 414 482Z"/>
    <circle cx="395.94" cy="202" r="1.7" fill="#9a86c8"/>
    </g>
  </defs>

  <!-- 背景 -->
  <rect width="800" height="240" fill="url(#bg)"/>
  <rect width="800" height="240" fill="url(#glowL)">
    <animate attributeName="opacity" values="0.7;1;0.7" dur="7s" repeatCount="indefinite"/>
  </rect>
  <rect width="800" height="240" fill="url(#glowR)">
    <animate attributeName="opacity" values="1;0.7;1" dur="7s" repeatCount="indefinite"/>
  </rect>
  <rect width="800" height="240" fill="url(#centerGlow)"/>

  <!-- 细双线框 -->
  <rect x="10.5" y="10.5" width="779" height="219" rx="7" fill="none" stroke="#cdb9ec" stroke-width="1"/>
  <rect x="16.5" y="16.5" width="767" height="207" rx="5" fill="none" stroke="#e0d3f4" stroke-width="0.7"/>
  <use href="#corner" transform="translate(24,24)"/>
  <use href="#corner" transform="translate(776,24) scale(-1,1)"/>
  <use href="#corner" transform="translate(24,216) scale(1,-1)"/>
  <use href="#corner" transform="translate(776,216) scale(-1,-1)"/>

  <!-- 飘落花瓣 -->
  <g filter="url(#petalShadow)">
    <g><use href="#fallPetal" transform="scale(0.6)">
      <animateTransform attributeName="transform" type="translate" values="150,-30; 190,260" dur="10s" repeatCount="indefinite"/></use>
      <animate attributeName="opacity" values="0;0.8;0.8;0" keyTimes="0;0.1;0.9;1" dur="10s" repeatCount="indefinite"/></g>
    <g><use href="#fallPetal" transform="scale(0.75)">
      <animateTransform attributeName="transform" type="translate" values="330,-40; 300,260" dur="12s" begin="-4s" repeatCount="indefinite"/></use>
      <animate attributeName="opacity" values="0;0.75;0.75;0" keyTimes="0;0.1;0.9;1" dur="12s" begin="-4s" repeatCount="indefinite"/></g>
    <g><use href="#fallPetal" transform="scale(0.55)">
      <animateTransform attributeName="transform" type="translate" values="500,-35; 540,260" dur="11s" begin="-7s" repeatCount="indefinite"/></use>
      <animate attributeName="opacity" values="0;0.75;0.75;0" keyTimes="0;0.1;0.9;1" dur="11s" begin="-7s" repeatCount="indefinite"/></g>
    <g><use href="#fallPetal" transform="scale(0.7)">
      <animateTransform attributeName="transform" type="translate" values="660,-30; 620,260" dur="9.5s" begin="-2s" repeatCount="indefinite"/></use>
      <animate attributeName="opacity" values="0;0.8;0.8;0" keyTimes="0;0.1;0.9;1" dur="9.5s" begin="-2s" repeatCount="indefinite"/></g>
  </g>

  <!-- 星光 -->
  <g>
    <use href="#sparkle" transform="translate(215,52) scale(0.55)"><animate attributeName="opacity" values="0.15;1;0.15" dur="3.2s" repeatCount="indefinite"/></use>
    <use href="#sparkle" transform="translate(585,46) scale(0.5)"><animate attributeName="opacity" values="1;0.15;1" dur="3.6s" repeatCount="indefinite"/></use>
    <use href="#sparkle" transform="translate(400,36) scale(0.45)"><animate attributeName="opacity" values="0.3;1;0.3" dur="4.1s" repeatCount="indefinite"/></use>
    <use href="#sparkle" transform="translate(268,196) scale(0.45)"><animate attributeName="opacity" values="0.1;0.85;0.1" dur="3.9s" repeatCount="indefinite"/></use>
    <use href="#sparkle" transform="translate(540,192) scale(0.5)"><animate attributeName="opacity" values="0.8;0.1;0.8" dur="3.4s" repeatCount="indefinite"/></use>
  </g>

  <!-- 左右花束 -->
  <g transform="translate(96,128)">
    <use href="#bouquet">
      <animateTransform attributeName="transform" type="rotate" values="-2.5 0 52; 2.5 0 52; -2.5 0 52" dur="6s" repeatCount="indefinite"/>
    </use>
  </g>
  <g transform="translate(704,128) scale(-1,1)">
    <use href="#bouquet">
      <animateTransform attributeName="transform" type="rotate" values="2.5 0 52; -2.5 0 52; 2.5 0 52" dur="6.6s" repeatCount="indefinite"/>
    </use>
  </g>

  <!-- 主标题（矢量路径，无需字体） -->
  <use href="#titlePaths" fill="#b79ae0" opacity="0.5" filter="url(#glow)">
    <animate attributeName="opacity" values="0.3;0.6;0.3" dur="4.5s" repeatCount="indefinite"/>
  </use>
  <use href="#titlePaths" fill="none" stroke="url(#strokeGrad)" stroke-width="25.81" stroke-linejoin="round" opacity="0.65"/>
  <use href="#titlePaths" fill="url(#titleGrad)" filter="url(#softShadow)"/>

  <!-- 装饰分隔线 -->
  <g stroke="#c3ade8" stroke-width="1" stroke-linecap="round" opacity="0.85">
    <line x1="298" y1="146" x2="368" y2="146"/>
    <line x1="432" y1="146" x2="502" y2="146"/>
  </g>
  <g transform="translate(400,146)">
    <rect x="-4.2" y="-4.2" width="8.4" height="8.4" transform="rotate(45)" fill="url(#goldGrad)" filter="url(#petalShadow)">
      <animateTransform attributeName="transform" type="rotate" values="45;405" dur="12s" repeatCount="indefinite"/>
    </rect>
  </g>
  <circle cx="286" cy="146" r="1.6" fill="#c3ade8"/>
  <circle cx="514" cy="146" r="1.6" fill="#c3ade8"/>

  <!-- 英文副标题 -->
  <text x="400" y="176" text-anchor="middle"
        font-family="Georgia,'Palatino Linotype','Book Antiqua',Palatino,serif"
        font-size="17" letter-spacing="9" fill="#6d28d9" opacity="0.9">VIOLET NOTES</text>

  <!-- 中文签语 -->
  <!-- 中文签语（矢量路径，无需字体） -->
  <use href="#tagPaths" fill="#9a86c8" opacity="0.95"/>
</svg>
